:SAMPLES-PER-SECOND 30
:FULLY-SPECIFIED
:DEGREES
430
root  -5.5274 37.8799 -68.3705 -177.714 11.8761 172.435
RightUpLeg  -5.88975 -6.03346 -11.5598
RightLeg  7.60356 5.65085 0.388476
RightFoot  36.2802 -0.957561 3.29965
RightToes  -42.5781 -0.239399 -0.329218
Spine  0.235434 -8.58588 -4.52735
Spine1  1.09469 -17.0159 -11.5371
HEad  -19.674 -43.5111 25.7438
LeftShoulder1  0 -2.42657e-020 -4.95415e-022
LeftArm  81.6015 -69.7736 178.865
LeftForeArm  29.3286 -71.2439 -31.4933
LeftHand  -0.0571284 -5.83976 0.750946
RightShoulder  0 2.42657e-020 1.07489e-018
RightArm  -91.1456 47.0553 -18.9104
RightForeArm  149.894 79.8337 80.0119
RightHand  -5.6016 7.47059 -73.3704
LeftUpLeg  4.23015 8.07061 12.825
LeftLeg  2.14978 -20.4454 0.535021
LeftFoot  37.8829 4.57928 -13.2907
LeftToes  -20.1854 8.63562e-007 1.17448e-007
431
root  -4.06419 40.3585 -68.5114 -175.015 11.3486 171.367
RightUpLeg  -7.36143 -5.80097 -11.3157
RightLeg  3.96658 6.21969 0.0322859
RightFoot  42.8145 -1.49034 4.17778
RightToes  -37.4016 -0.198066 -0.299979
Spine  -1.81996 -8.63334 -6.11046
Spine1  -2.77665 -17.3551 -12.4577
HEad  -18.3428 -44.9287 25.752
LeftShoulder1  0 -2.42657e-020 -4.95415e-022
LeftArm  85.8517 -67.4554 175.9
LeftForeArm  27.4632 -71.0054 -31.0137
LeftHand  -0.0383892 -5.75944 0.393676
RightShoulder  0 2.42657e-020 1.07489e-018
RightArm  -89.9668 44.9284 -16.2778
RightForeArm  174.813 79.7832 101.49
RightHand  -5.41459 6.96689 -75.3628
LeftUpLeg  1.12188 12.7594 10.4302
LeftLeg  4.20291 -21.6119 -0.192409
LeftFoot  28.2133 2.72255 -10.8035
LeftToes  -22.1208 8.63562e-007 1.17448e-007
432
root  -2.58648 42.5097 -68.7022 -174.858 11.5293 171.332
RightUpLeg  -6.30569 -3.53897 -10.0207
RightLeg  3.37093 2.88928 -0.0147621
RightFoot  35.3967 -0.383005 1.57771
RightToes  -37.4396 -0.19836 -0.300207
Spine  -2.26541 -8.34148 -6.87723
Spine1  -3.65678 -16.8116 -12.9436
HEad  -19.677 -44.5619 25.6723
LeftShoulder1  0 -2.42657e-020 -4.95415e-022
LeftArm  89.957 -67.2281 173.359
LeftForeArm  29.3774 -70.9138 -30.841
LeftHand  -0.0281246 -5.94889 0.17151
RightShoulder  0 2.42657e-020 1.07489e-018
RightArm  -89.1301 43.4223 -13.9228
RightForeArm  -171.253 78.9299 115.385
RightHand  -5.34389 6.80481 -75.9441
LeftUpLeg  1.15016 9.92703 8.61044
LeftLeg  6.50849 -14.5427 -0.711062
LeftFoot  29.8773 1.98411 -7.42698
LeftToes  -21.2679 8.63562e-007 1.17448e-007
433
root  -1.14163 44.2409 -68.897 -175.829 12.79 172.455
RightUpLeg  -4.81532 -3.49527 -7.95498
RightLeg  5.11693 3.91517 0.0992889
RightFoot  33.5842 -0.504634 2.04966
RightToes  -38.576 -0.207208 -0.306937
Spine  -1.93209 -7.80493 -6.89505
Spine1  -3.09213 -15.7524 -12.6635
HEad  -21.28 -42.6444 25.2815
LeftShoulder1  0 -2.42657e-020 -4.95415e-022
LeftArm  91.9378 -67.0992 172.711
LeftForeArm  31.1615 -70.5185 -30.0973
LeftHand  -0.0709784 -6.69734 0.84393
RightShoulder  0 2.42657e-020 1.07489e-018
RightArm  -88.1221 44.1567 -10.153
RightForeArm  -171.103 78.9018 115.688
RightHand  -4.98513 6.26879 -76.6533
LeftUpLeg  2.21302 4.14088 7.24858
LeftLeg  10.0005 -7.26839 -0.803774
LeftFoot  30.8368 1.03746 -3.76052
LeftToes  -20.3227 8.63562e-007 1.17448e-007
434
root  0.307968 45.5364 -69.0712 -177.022 14.0572 174.219
RightUpLeg  -2.65814 -1.78725 -5.58983
RightLeg  6.87484 5.98972 0.335275
RightFoot  34.4535 -0.902169 3.28654
RightToes  -34.4332 -0.175609 -0.281567
Spine  -1.36617 -7.29194 -6.05602
Spine1  -2.14336 -14.6874 -11.7263
HEad  -21.6759 -41.3115 24.1518
LeftShoulder1  0 -2.42657e-020 -4.95415e-022
LeftArm  93.8943 -66.8978 171.527
LeftForeArm  29.129 -68.7129 -27.0717
LeftHand  -0.110873 -6.96528 1.45316
RightShoulder  0 2.42657e-020 1.07489e-018
RightArm  -87.2832 46.3722 -6.68734
RightForeArm  178.445 79.6199 105.321
RightHand  -4.841 6.08701 -76.6611
LeftUpLeg  1.9305 1.4395 6.53442
LeftLeg  16.1351 -5.03307 -1.11182
LeftFoot  30.1669 0.699666 -2.59565
LeftToes  -18.6345 8.63562e-007 1.17448e-007
435
root  1.70361 46.3837 -69.2486 -177.603 15.3869 175.61
RightUpLeg  -1.37292 -2.45391 -3.88848
RightLeg  8.83818 7.31565 0.660407
RightFoot  35.981 -1.24786 4.21885
RightToes  -36.2135 -0.188964 -0.292749
Spine  -1.10553 -6.82566 -5.3188
Spine1  -1.74813 -13.7321 -10.9006
HEad  -21.4301 -40.3113 23.1587
LeftShoulder1  0 -2.42657e-020 -4.95415e-022
LeftArm  97.5862 -66.398 168.673
LeftForeArm  24.7153 -64.6011 -21.9054
LeftHand  -0.103856 -7.01781 1.32494
RightShoulder  0 2.42657e-020 1.07489e-018
RightArm  -86.5129 48.3776 -3.28662
RightForeArm  166.114 79.976 92.8457
RightHand  -5.07655 6.44038 -76.1573
LeftUpLeg  2.08692 2.16772 5.82701
LeftLeg  18.7314 -6.90996 -1.85498
LeftFoot  30.7539 1.01873 -3.70312
LeftToes  -16.062 8.63562e-007 1.17448e-007
436
root  3.06054 46.767 -69.4075 -178.076 16.183 176.65
RightUpLeg  -1.22341 -5.4624 -2.96007
RightLeg  12.5679 6.49805 1.01524
RightFoot  36.3246 -1.11651 3.78
RightToes  -39.3879 -0.213612 -0.311638
Spine  -0.92507 -6.44576 -4.97418
Spine1  -1.49833 -12.9847 -10.2762
HEad  -21.7515 -40.2322 22.2795
LeftShoulder1  0 -2.42657e-020 -4.95415e-022
LeftArm  102.879 -65.3303 163.375
LeftForeArm  21.8568 -57 -15.8043
LeftHand  0.102431 -6.89273 -2.07278
RightShoulder  0 2.42657e-020 1.07489e-018
RightArm  -85.8968 49.6708 -0.272531
RightForeArm  141.869 79.3181 69.2223
RightHand  -5.09467 6.64324 -74.6277
LeftUpLeg  2.5982 3.4977 4.80971
LeftLeg  18.8835 -7.65772 -2.07592
LeftFoot  31.5565 1.19609 -4.23127
LeftToes  -16.0942 8.63562e-007 1.17448e-007
437
root  4.3401 46.6713 -69.5345 -178.291 16.4221 177.283
RightUpLeg  -1.4773 -9.36982 -2.92706
RightLeg  16.051 5.60287 1.22716
RightFoot  36.9082 -0.958839 3.25026
RightToes  -39.2787 -0.212747 -0.311012
Spine  -0.914322 -6.29181 -4.73112
Spine1  -1.41243 -12.8578 -9.77116
HEad  -21.6636 -39.9523 21.3658
LeftShoulder1  0 -2.42657e-020 -4.95415e-022
LeftArm  110.328 -64.1097 156.453
LeftForeArm  17.2797 -47.5348 -11.1219
LeftHand  0.319648 -5.48222 -7.04763
RightShoulder  0 2.42657e-020 1.07489e-018
RightArm  -90.9032 51.4178 -2.52734
RightForeArm  101.106 69.47 27.9711
RightHand  -5.21664 7.34479 -70.4098
LeftUpLeg  2.5699 5.1107 3.28406
LeftLeg  18.1392 -6.06954 -1.56368
LeftFoot  31.6742 0.974943 -3.43594
LeftToes  -17.3283 8.63562e-007 1.17448e-007
438
root  5.63273 46.1521 -69.6393 -178.331 17.1067 178.079
RightUpLeg  -0.926883 -11.4737 -2.5925
RightLeg  16.8911 3.86646 0.906824
RightFoot  37.7134 -0.555839 2.0049
RightToes  -39.0899 -0.211629 -0.310195
Spine  -0.777015 -6.3519 -4.26688
Spine1  -0.89485 -13.4957 -8.67893
HEad  -23.1796 -39.6913 21.8833
LeftShoulder1  0 -2.42657e-020 -4.95415e-022
LeftArm  119.5 -62.452 148.88
LeftForeArm  13.9371 -39.061 -8.2249
LeftHand  0.128402 -1.9549 -7.91312
RightShoulder  0 2.42657e-020 1.07489e-018
RightArm  -106.652 53.6251 -16.431
RightForeArm  89.2756 42.8475 9.2687
RightHand  -7.27697 11.1494 -65.8284
LeftUpLeg  3.18682 6.87481 2.00872
LeftLeg  15.2963 -4.32562 -0.889925
LeftFoot  32.0719 0.774721 -2.69494
LeftToes  -18.3203 8.63562e-007 1.17448e-007
439
root  6.89558 45.2541 -69.7388 -178.04 17.0877 178.742
RightUpLeg  0.541108 -13.5879 -2.55633
RightLeg  14.7466 3.10573 0.60765
RightFoot  38.2674 -0.416683 1.5785
RightToes  -39.9174 -0.210466 -0.309344
Spine  -0.414489 -5.398 -3.5086
Spine1  -0.808989 -11.3115 -8.45489
HEad  -24.7827 -40.2012 22.8046
LeftShoulder1  0 -2.42657e-020 -4.95415e-022
LeftArm  124.812 -61.4159 146.793
LeftForeArm  12.5816 -35.9242 -7.3338
LeftHand  -0.0375229 1.8989 -2.62422
RightShoulder  0 2.42657e-020 1.07489e-018
RightArm  -119.712 49.5235 -32.5196
RightForeArm  78.4398 18.9974 3.38101
RightHand  -7.7773 17.9787 -46.1498
LeftUpLeg  4.68665 7.72565 0.620864
LeftLeg  8.36376 -4.69513 -0.385049
LeftFoot  35.7438 1.00517 -3.11662
LeftToes  -14.9563 8.63562e-007 1.17448e-007
440
root  8.1918 43.8061 -69.7808 -177.197 16.4288 -179.996
RightUpLeg  1.78353 -14.9214 -1.77663
RightLeg  11.2572 3.13281 0.4177
RightFoot  39.6667 -0.48948 1.73457
RightToes  -38.8978 -0.209738 -0.308811
Spine  -0.226609 -4.45804 -1.8161
Spine1  -0.996588 -8.96391 -8.34123
HEad  -26.5148 -40.8359 23.6941
LeftShoulder1  0 -2.42657e-020 -4.95415e-022
LeftArm  127.046 -61.6556 145.915
LeftForeArm  9.89022 -35.7267 -7.27799
LeftHand  -0.0180146 3.33838 -0.98607
RightShoulder  0 2.42657e-020 1.07489e-018
RightArm  -135.205 43.687 -43.171
RightForeArm  71.6379 7.68777 1.29346
RightHand  -0.0883789 18.4848 -0.173165
LeftUpLeg  2.30887 9.99815 0.254864
LeftLeg  7.35553 -8.27261 -0.530141
LeftFoot  35.2661 1.63364 -5.13651
LeftToes  -17.9226 8.63562e-007 1.17448e-007
